<svg aria-hidden="true" style="position:absolute;width:0;height:0;overflow:hidden" xmlns="http://www.w3.org/2000/svg"><defs><symbol id="icon-4" viewBox="0 0 32 32"><path fill="#575757" style="fill:var(--color1, #575757)" d="M28 4H4a4 4 0 0 0-4 4v16a4 4 0 0 0 4 4h24a4 4 0 0 0 4-4V8a4 4 0 0 0-4-4zM2 8a2 2 0 0 1 2-2h24a2 2 0 0 1 2 2v16a2 2 0 0 1-2 2H4a2 2 0 0 1-2-2V8z"/><path fill="#575757" style="fill:var(--color1, #575757)" d="M10.159 16.822h3.489v4.13c-.503.367-1.039.633-1.607.799s-1.162.248-1.782.248c-.808 0-1.544-.126-2.206-.379s-1.229-.602-1.701-1.048c-.472-.445-.835-.974-1.091-1.585s-.384-1.275-.384-1.991c0-.73.121-1.4.364-2.011s.589-1.138 1.041-1.582c.451-.443.997-.788 1.637-1.034S9.274 12 10.065 12c.409 0 .793.034 1.152.101s.69.159.994.275a4.584 4.584 0 0 1 1.506.94l-.66 1.001c-.103.157-.237.253-.401.289s-.34-.004-.529-.121c-.18-.107-.349-.2-.509-.279a3.044 3.044 0 0 0-1.013-.298 5.25 5.25 0 0 0-.62-.034c-.427 0-.811.075-1.152.225s-.632.362-.872.635-.425.601-.556.984-.195.809-.195 1.279c0 .519.072.981.216 1.383s.347.743.61 1.021c.263.278.577.489.943.635s.771.218 1.216.218c.274 0 .522-.027.744-.081s.439-.125.65-.215v-1.484h-.97c-.144 0-.256-.038-.337-.114s-.121-.172-.121-.289v-1.249zm8.027 5.071h-2.29v-9.785h2.29v9.785zm4.909-5.561v-2.478h4.028v-1.746h-6.319v9.785h2.29v-3.808h3.355v-1.753h-3.355z"/></symbol><symbol id="icon-1" viewBox="0 0 32 32"><path fill="#575757" style="fill:var(--color1, #575757)" d="M4.571 2.286A4.571 4.571 0 0 0 0 6.857v18.286a4.571 4.571 0 0 0 4.571 4.571H27.47A4.571 4.571 0 0 0 32 25.143V6.857a4.571 4.571 0 0 0-4.571-4.571H4.572zm25.143 21.199-5.933-8.157a1.143 1.143 0 0 0-1.849 0l-8.801 12.101H4.57a2.286 2.286 0 0 1-2.286-2.286V6.857A2.286 2.286 0 0 1 4.57 4.571h22.857a2.286 2.286 0 0 1 2.286 2.286v16.628zm-2.285 3.944h-11.47l6.899-9.485 6.313 8.681c-.426.5-1.056.805-1.742.805zm-16-9.143a4.571 4.571 0 1 0 0-9.142 4.571 4.571 0 0 0 0 9.142zm0-2.286a2.286 2.286 0 1 1 0-4.572 2.286 2.286 0 0 1 0 4.572z"/></symbol><symbol id="icon-5" viewBox="0 0 32 32"><path fill="#575757" style="fill:var(--color1, #575757)" d="m16.943 13.172-.943.943-.943-.943a1.333 1.333 0 0 1 0-1.886l5.657-5.657a1.333 1.333 0 0 1 1.886 0L26.371 9.4a1.333 1.333 0 0 1 0 1.886l-5.657 5.657a1.333 1.333 0 0 1-1.886 0L17.885 16l.943-.943.943.943 5.657-5.657-3.771-3.771L16 12.229l.943.943zM15.058 18.828l.943-.943.943.943a1.333 1.333 0 0 1 0 1.886l-5.657 5.657a1.333 1.333 0 0 1-1.886 0L5.63 22.6a1.333 1.333 0 0 1 0-1.886l5.657-5.657a1.333 1.333 0 0 1 1.886 0l.943.943-.943.943L12.23 16l-5.657 5.657 3.771 3.771 5.657-5.657-.943-.943z"/><path fill="#575757" style="fill:var(--color1, #575757)" d="M18.829 13.172a.668.668 0 0 0-.943 0l-4.714 4.714a.668.668 0 0 0 .943.943l4.714-4.714a.668.668 0 0 0 0-.943z"/></symbol><symbol id="icon-3" viewBox="0 0 32 32"><path fill="#575757" style="fill:var(--color1, #575757)" d="M28 4H4a4 4 0 0 0-4 4v16a4 4 0 0 0 4 4h24a4 4 0 0 0 4-4V8a4 4 0 0 0-4-4zM2 8a2 2 0 0 1 2-2h24a2 2 0 0 1 2 2v16a2 2 0 0 1-2 2H4a2 2 0 0 1-2-2V8z"/><path fill="#575757" style="fill:var(--color1, #575757)" d="M4 20.922V11h4.234c.475 0 .91.098 1.307.293s.736.451 1.02.768c.284.317.507.676.671 1.077.163.4.244.805.244 1.216 0 .438-.077.857-.231 1.258-.154.4-.368.759-.643 1.076a2.987 2.987 0 0 1-2.3 1.034H6.29v3.2H3.999zm2.292-5.199h1.872c.271 0 .504-.116.7-.349s.293-.573.293-1.02c0-.233-.031-.433-.091-.602-.06-.167-.142-.307-.244-.419s-.219-.193-.349-.244a1.075 1.075 0 0 0-.391-.077H6.293v2.711zM12.111 20.922V11h3.703c.82 0 1.538.13 2.152.391.615.26 1.13.614 1.545 1.061.414.448.727.971.936 1.573.21.601.315 1.242.315 1.921 0 .755-.117 1.438-.349 2.048-.233.61-.566 1.132-1 1.565s-.955.769-1.565 1.006c-.611.238-1.289.356-2.034.356h-3.703zm6.317-4.976c0-.437-.059-.836-.175-1.194s-.287-.669-.51-.929a2.22 2.22 0 0 0-.825-.602 2.776 2.776 0 0 0-1.104-.209h-1.411v5.898h1.411c.42 0 .792-.075 1.118-.224s.598-.356.818-.622c.218-.265.387-.578.503-.936s.175-.753.175-1.182zM21.265 20.922V11H28v2.012h-4.444v2.138h3.661v1.858h-3.661v3.913h-2.292z"/></symbol><symbol id="icon-0" viewBox="0 0 32 32"><path fill="#575757" style="fill:var(--color1, #575757)" d="M29.714 4.571v22.857a4.571 4.571 0 0 1-4.571 4.571H6.857a4.571 4.571 0 0 1-4.571-4.571V4.571A4.571 4.571 0 0 1 6.857 0h18.286a4.571 4.571 0 0 1 4.571 4.571zm-2.285 0a2.286 2.286 0 0 0-2.286-2.286H6.857a2.286 2.286 0 0 0-2.286 2.286v22.857a2.286 2.286 0 0 0 2.286 2.286h18.286a2.286 2.286 0 0 0 2.286-2.286V4.571zm-5.715 4.572a1.143 1.143 0 0 0 0-2.286H10.285a1.143 1.143 0 0 0 0 2.286h11.429zm1.143 4.571c0 .631-.512 1.143-1.143 1.143H10.285a1.143 1.143 0 0 1 0-2.286h11.429c.631 0 1.143.512 1.143 1.143zm-5.714 6.857a1.143 1.143 0 0 0 0-2.286h-6.857a1.143 1.143 0 0 0 0 2.286h6.857z"/></symbol><symbol id="icon-2" viewBox="0 0 32 32"><path fill="#575757" style="fill:var(--color1, #575757)" d="M11 10.5a1.5 1.5 0 1 1-3.001-.001A1.5 1.5 0 0 1 11 10.5z"/><path fill="#575757" style="fill:var(--color1, #575757)" d="M16 5a4 4 0 0 1 4 4v1.2l5.257-2.103A2 2 0 0 1 28 9.954v12.092a2 2 0 0 1-2.743 1.857L20 21.8V23a4 4 0 0 1-4 4H8a4 4 0 0 1-4-4V9a4 4 0 0 1 4-4h8zm4 7.354v7.292l6 2.4V9.954l-6 2.4zM18 9a2 2 0 0 0-2-2H8a2 2 0 0 0-2 2v14a2 2 0 0 0 2 2h8a2 2 0 0 0 2-2V9z"/></symbol></defs></svg>